<svg width="84" height="85" viewBox="0 0 84 85" fill="none" xmlns="http://www.w3.org/2000/svg">
<path d="M0.99661 74.4286L1.0678 76.2857C1.70847 74.8571 3.20339 74.3571 4.48475 74.3571C5.2678 74.3571 5.97966 74.5714 6.69152 75L6.26441 75.8571C5.69492 75.5 5.12542 75.3571 4.48475 75.3571C2.56271 75.3571 1.0678 76.9286 1.0678 78.7857V84.8571H0V74.5H0.99661V74.4286Z" fill="#F3F0F1"/>
<path d="M9.53902 71.0714C9.53902 72.1429 7.90173 72.1429 7.90173 71.0714C7.90173 69.9286 9.53902 69.9286 9.53902 71.0714ZM8.18648 74.3571V84.7857H9.25428V74.3571H8.18648Z" fill="#F3F0F1"/>
<path d="M11.817 74.4286H19.5763V74.8571L13.0271 83.8571H19.5763V84.8571H11.5322V84.5L18.1526 75.4286H11.8882V74.4286H11.817Z" fill="#F3F0F1"/>
<path d="M21.2847 79.6429C21.2847 76.3572 23.6339 74.2143 26.5525 74.2143C29.4712 74.2143 31.8203 76.2857 31.8203 79.6429C31.8203 82.9286 29.4712 84.9286 26.5525 84.9286C23.6339 84.9286 21.2847 82.9286 21.2847 79.6429ZM30.7525 79.6429C30.7525 76.9286 28.8305 75.2143 26.4813 75.2143C24.1322 75.2143 22.2102 76.9286 22.2102 79.6429C22.2102 82.3572 24.1322 83.9286 26.4813 83.9286C28.8305 83.9286 30.7525 82.2857 30.7525 79.6429Z" fill="#F3F0F1"/>
<path d="M49.4746 84.7857V78.5714C49.4746 76.5714 48.122 75.1428 46.2 75.1428C44.2068 75.1428 42.8542 76.6429 42.8542 78.5714V84.7143H41.8576V78.5714C41.8576 76.5714 40.5051 75.1428 38.5119 75.1428C36.5186 75.1428 35.2373 76.5714 35.2373 78.5714V84.7143H34.1695V74.3571H35.1661V76.0714C35.878 74.7143 37.2305 74.1429 38.5119 74.1429C40.078 74.1429 41.7153 74.8571 42.3559 76.7143C42.9966 75 44.5627 74.1429 46.2 74.1429C48.7627 74.1429 50.5424 75.9286 50.5424 78.5V84.7143H49.4746V84.7857Z" fill="#F3F0F1"/>
<path d="M52.7491 79.5714C52.7491 76.5 55.0983 74.2143 58.0169 74.2143C60.9356 74.2143 63.4983 76 63.1424 80.0714H53.8169C54.0305 82.5 55.8814 83.9286 58.0169 83.9286C59.3695 83.9286 60.9356 83.3572 61.7186 82.3572L62.4305 82.9286C61.4339 84.2857 59.6542 84.9286 57.9458 84.9286C55.0983 84.9286 52.7491 82.9286 52.7491 79.5714ZM62.2169 79.2143C62.2169 76.6429 60.5085 75.2143 58.0169 75.2143C55.8814 75.2143 54.0305 76.6429 53.8169 79.2143H62.2169Z" fill="#F3F0F1"/>
<path d="M67.0576 84.1429C67.0576 85.2143 65.4203 85.2143 65.4203 84.1429C65.4203 83.0714 67.0576 83.0714 67.0576 84.1429Z" fill="#F3F0F1"/>
<path d="M71.1153 71.0714C71.1153 72.1429 69.478 72.1429 69.478 71.0714C69.478 69.9286 71.1153 69.9286 71.1153 71.0714ZM69.7627 74.3571V84.7857H70.7593V74.3571H69.7627Z" fill="#F3F0F1"/>
<path d="M73.4644 79.6429C73.4644 76.3572 75.8135 74.2143 78.7322 74.2143C81.6508 74.2143 84 76.2857 84 79.6429C84 82.9286 81.6508 84.9286 78.7322 84.9286C75.8135 84.9286 73.4644 82.9286 73.4644 79.6429ZM83.0033 79.6429C83.0033 76.9286 81.0813 75.2143 78.7322 75.2143C76.383 75.2143 74.461 76.9286 74.461 79.6429C74.461 82.3572 76.383 83.9286 78.7322 83.9286C81.0813 83.9286 83.0033 82.2857 83.0033 79.6429Z" fill="#F3F0F1"/>
<path d="M49.4746 32.2857C49.4034 32.2857 49.4034 32.2857 49.3322 32.2857C47.9085 32.2857 46.6983 33.4286 46.6271 34.9286C46.5559 36.4286 47.6949 37.7143 49.1898 37.7857C49.9017 37.7857 50.6136 37.5715 51.1119 37.0715C51.6102 36.5715 51.9661 35.9286 51.9661 35.2143C51.9661 34.5 51.7526 33.7857 51.2542 33.2857C50.8983 32.6429 50.1865 32.3572 49.4746 32.2857Z" fill="#3D3D3E"/>
<path d="M27.1932 16.7143C27.478 16.9286 27.6203 17.2857 27.6203 17.6429C27.6203 18.2143 27.2644 18.7143 26.6949 18.8572C25.3424 24.8572 24.1322 31.6429 22.922 38.0714C21.7831 44.2143 20.7153 50 19.6475 54.8572C25.3424 60.5 33.1729 64 41.8576 64C59.2983 64 73.4644 49.7857 73.4644 32.2857C73.4644 14.7857 59.2983 0.571442 41.8576 0.571442C38.7966 0.571442 35.8068 1.00001 33.0305 1.85716C32.817 2.07144 32.6034 2.28573 32.461 2.50001C30.539 4.7143 28.7593 10.0714 27.1932 16.7143ZM43.7797 7.50001C43.7797 7.00001 44.1356 6.64287 44.6339 6.64287C44.9186 6.64287 45.2034 6.85716 45.3458 7.07144C45.7729 7.00001 46.2 6.92858 46.6271 6.85716C53.7458 6.00001 61.3627 10 65.4915 16.8572C73.1797 29.3572 70.7593 40.3572 65.9898 46.4286C62.0746 51.4286 54.0305 54.5 50.1153 55.9286C45.2746 57.7857 40.5763 58.7143 36.5898 58.7143C33.9559 58.7143 31.678 58.2857 29.8271 57.4286C27.122 56.2143 25.8407 53 26.0542 47.5714C25.6271 47.5714 25.2712 47.1429 25.2712 46.7143C25.2712 46.2143 25.6271 45.8572 26.1254 45.8572H26.1966C26.6949 39.8572 28.6881 31.5714 32.1763 20.6429C34.3831 13.7857 38.4407 9.2143 43.7797 7.50001Z" fill="#3D3D3E"/>
<path d="M46.7695 50.1429C47.1966 50.1429 47.4813 50.3572 47.7661 50.5714C52.9627 49.1429 58.5864 46 61.7186 42.2143C64.6373 38.7857 66.1322 30.5714 63.7119 24.3572C62.2881 20.7143 58.9424 16.2143 50.9695 15.2857C50.4 15.2143 49.9017 15.2143 49.4034 15.2143C41.7153 15.2143 38.8678 22.5714 36.661 30.2143L36.3051 31.4286C34.0983 39.0714 32.461 44.6429 34.3119 47.9286C35.1661 49.5 36.8746 50.5714 39.4373 51.2143C41.1458 51.6429 43.2102 51.5714 45.4881 51.1429C45.7017 50.5714 46.2 50.1429 46.7695 50.1429ZM41.5017 40.9286C40.078 38.2857 41.7864 34.8571 43.7797 30.7857C43.9932 30.3572 44.2068 30 44.3491 29.5714C46.4136 25.3572 49.4746 23.5714 52.5356 24.7857C53.3898 25.1429 54.1729 25.7143 54.8847 26.5C54.9559 26.4286 55.0983 26.4286 55.2407 26.4286C55.739 26.4286 56.0949 26.7857 56.0949 27.2857C56.0949 27.5 56.0237 27.6429 55.8813 27.8572C57.0915 29.9286 57.661 32.5714 56.7356 35.2857C55.2407 40.0714 50.7559 42.1429 47.0542 42.5C46.6271 42.5714 46.2712 42.5714 45.9152 42.5714C43.7797 42.5714 42.0712 41.9286 41.5017 40.9286Z" fill="#3D3D3E"/>
<path d="M26.9796 46.7857C26.9796 47.2143 26.6237 47.5714 26.1966 47.6429C25.983 53 27.2644 56.1429 29.8983 57.3572C34.4542 59.4286 42 58.8572 50.044 55.7857C53.8881 54.3572 61.9322 51.2857 65.8474 46.2857C70.6169 40.2143 72.9661 29.3572 65.3491 16.9286C61.5762 10.7857 55.0271 6.92859 48.5491 6.92859C47.9084 6.92859 47.2678 7.00002 46.6271 7.07145C46.2 7.14287 45.7729 7.2143 45.4169 7.28573C45.4169 7.35716 45.4881 7.50002 45.4881 7.57145C45.4881 8.07145 45.1322 8.42859 44.6339 8.42859C44.2068 8.42859 43.8508 8.14288 43.7796 7.7143C38.5118 9.42859 34.5254 13.9286 32.3186 20.7857C28.8305 31.7143 26.8373 40.0715 26.339 46C26.7661 46.0715 26.9796 46.3572 26.9796 46.7857ZM35.3796 31.1429L35.7356 29.9286C38.0847 21.7857 41.4305 13.2143 51.1118 14.3572C59.5118 15.3572 63.1423 20.2143 64.6373 24.0714C67.2712 30.7143 65.6339 39.2143 62.5017 42.9286C59.2271 46.8572 53.461 50.0715 48.0508 51.5715C47.9796 52.2143 47.4101 52.7143 46.7695 52.7143C46.3423 52.7143 45.9152 52.5 45.7017 52.1429C44.4915 52.3572 43.2813 52.5 42.2135 52.5C41.1457 52.5 40.1491 52.3572 39.2237 52.1429C36.3762 51.4286 34.4542 50.2143 33.4576 48.3572C31.3932 44.7143 33.0305 39 35.3796 31.1429Z" fill="#3D3D3E"/>
<path d="M15.7322 14.3572C12.2441 19.4286 10.2509 25.5714 10.2509 32.2143C10.2509 38 11.817 43.4286 14.522 48.0714C16.1593 37.7857 17.0848 26.1429 15.7322 14.3572Z" fill="#3D3D3E"/>
<path d="M54.3153 27.2857C54.3153 27 54.4577 26.7143 54.7424 26.5714C54.1017 25.8571 53.3187 25.2857 52.4644 24.9286C49.5458 23.7143 46.556 25.5 44.4916 29.6429C44.278 30.0714 44.0644 30.4286 43.9221 30.8571C41.9289 34.8572 40.2204 38.2857 41.6441 40.8572C42.2848 42 44.4916 42.5714 47.0543 42.3572C50.6848 42 55.0983 39.9286 56.5933 35.2857C57.4475 32.6429 56.9492 30 55.739 28C55.5966 28.1429 55.3831 28.2143 55.1695 28.2143C54.7424 28.1429 54.3153 27.7857 54.3153 27.2857ZM51.895 37.7857C51.1831 38.4286 50.3289 38.7857 49.4034 38.7857C49.3322 38.7857 49.2611 38.7857 49.2611 38.7857C47.1966 38.7143 45.6305 36.9286 45.7017 34.9286C45.7729 32.8572 47.5526 31.2857 49.5458 31.3571C50.5424 31.4286 51.4678 31.8571 52.1085 32.5714C52.7492 33.2857 53.1051 34.2857 53.1051 35.2857C53.0339 36.2143 52.6068 37.0714 51.895 37.7857Z" fill="#3D3D3E"/>
<path d="M14.6644 48.3571C15.8746 50.3571 17.2983 52.2857 18.8644 54C19.861 49.3571 20.9288 43.7857 21.9966 37.9286C23.2068 31.3571 24.417 24.6429 25.6983 18.7857C25.3424 18.5714 25.0576 18.1429 25.0576 17.7143C25.0576 17.0714 25.556 16.5 26.2678 16.4286C27.7627 10.1429 29.4 5.07143 31.2509 2.42857C24.9865 4.71429 19.6475 8.85715 15.9458 14.2143C17.2983 26.1429 16.3017 37.8571 14.6644 48.3571Z" fill="#3D3D3E"/>
<path d="M26.6949 18.8572C26.5526 18.8572 26.4814 18.9286 26.339 18.9286C26.1255 18.9286 25.9119 18.8572 25.6983 18.7143C24.417 24.5715 23.1356 31.2857 21.9966 37.8572C20.9288 43.7143 19.9322 49.2857 18.8644 53.9286C19.1492 54.2143 19.4339 54.5 19.7187 54.7857C20.7865 50 21.8543 44.1429 22.9933 38C24.1322 31.6429 25.3424 24.8572 26.6949 18.8572Z" fill="#F3F0F1"/>
<path d="M26.339 16.3571C26.6949 16.3571 26.9796 16.5 27.1932 16.7143C28.7593 10.0714 30.539 4.71429 32.461 2.42858C32.6746 2.21429 32.8881 2.00001 33.0305 1.78572C32.3898 2.00001 31.8203 2.14286 31.1796 2.35715C29.3288 5.00001 27.6915 10.0714 26.1966 16.3571C26.2678 16.3571 26.2678 16.3571 26.339 16.3571Z" fill="#F3F0F1"/>
<path d="M26.1966 45.9286C26.2678 45.9286 26.2678 45.9286 26.339 45.9286C26.8373 40 28.8305 31.7143 32.3186 20.7143C34.5254 13.8572 38.5118 9.35716 43.7796 7.64287C43.7796 7.57144 43.7796 7.57144 43.7796 7.50002C38.4407 9.2143 34.383 13.7857 32.1763 20.7143C28.6881 31.6429 26.6949 39.9286 26.1966 45.9286Z" fill="#F3F0F1"/>
<path d="M46.6983 7.07145C47.339 7.00002 47.9797 6.9286 48.6204 6.9286C55.0983 6.9286 61.6475 10.7857 65.4204 16.9286C73.0373 29.3572 70.6881 40.2857 65.9187 46.2857C62.0034 51.2143 54.0305 54.2857 50.1153 55.7857C42.0712 58.8572 34.5254 59.4286 29.9695 57.3572C27.3356 56.1429 26.0543 53 26.2678 47.6429H26.1966C26.1966 47.6429 26.1966 47.6429 26.1254 47.6429C25.9119 53.0714 27.1932 56.2857 29.8983 57.5C31.7492 58.3572 34.0271 58.7857 36.661 58.7857C40.6475 58.7857 45.3458 57.8572 50.1865 56C54.0305 54.5 62.0746 51.4286 66.061 46.4286C70.8305 40.3572 73.2509 29.3572 65.5627 16.8572C61.3627 10 53.817 6.00003 46.6983 6.85717C46.2712 6.9286 45.8441 7.00002 45.417 7.07145C45.417 7.14288 45.4882 7.14288 45.4882 7.21431C45.8441 7.14288 46.2712 7.07145 46.6983 7.07145Z" fill="#F3F0F1"/>
<path d="M39.2237 52.1429C40.1492 52.3572 41.1458 52.5 42.2136 52.5C43.3525 52.5 44.4915 52.3572 45.7017 52.1429C45.5593 51.9286 45.4881 51.7143 45.4881 51.4286C45.4881 51.2857 45.4881 51.2143 45.5593 51.1429C43.2814 51.5714 41.217 51.6429 39.5085 51.2143C36.9458 50.5714 35.2373 49.5 34.3831 47.9286C32.461 44.5714 34.0983 39.0714 36.3051 31.4286L36.661 30.2143C38.8678 22.5714 41.7153 15.2143 49.4034 15.2143C49.9017 15.2143 50.4 15.2143 50.9695 15.2857C58.8712 16.2143 62.2881 20.7143 63.7119 24.3572C66.1322 30.5714 64.6373 38.7857 61.7186 42.2143C58.5864 45.9286 52.9627 49.0714 47.7661 50.5714C47.9797 50.7857 48.0508 51.0714 48.0508 51.4286C48.0508 51.5 48.0508 51.5 48.0508 51.5714C53.461 50.0714 59.1559 46.8572 62.5017 42.9286C65.6339 39.2143 67.2712 30.7143 64.6373 24.0714C63.1424 20.2143 59.5119 15.3572 51.1119 14.3572C41.4305 13.2143 38.0847 21.7857 35.7356 29.9286L35.3797 31.1429C33.1017 39.0714 31.3932 44.7143 33.4576 48.4286C34.4542 50.2143 36.3763 51.4286 39.2237 52.1429Z" fill="#F3F0F1"/>
<path d="M47.0543 42.5C50.7559 42.1429 55.2407 40.0714 56.7356 35.2857C57.5898 32.5714 57.0915 29.8571 55.8814 27.8571C55.8814 27.9286 55.8102 27.9286 55.739 28C56.9492 30 57.4475 32.6429 56.5932 35.2857C55.0983 40 50.6848 42 47.0543 42.3571C44.4915 42.5714 42.2848 42 41.6441 40.8571C40.2204 38.2857 41.9288 34.8571 43.9221 30.8571C44.1356 30.4286 44.3492 30.0714 44.4915 29.6429C46.4848 25.5 49.4746 23.7857 52.4644 24.9286C53.2475 25.2857 54.0305 25.8571 54.7424 26.5714C54.8136 26.5714 54.8136 26.5 54.8848 26.5C54.1729 25.7143 53.3898 25.1429 52.5356 24.7857C49.4746 23.5714 46.4136 25.3571 44.3492 29.5714C44.1356 30 43.9221 30.3571 43.7797 30.7857C41.7865 34.7857 40.078 38.2857 41.5017 40.9286C42.0712 41.9286 43.7797 42.5714 45.9153 42.5714C46.2712 42.5714 46.6271 42.5714 47.0543 42.5Z" fill="#F3F0F1"/>
<path d="M49.5458 31.2857C47.4814 31.2143 45.7729 32.7857 45.7017 34.8572C45.6305 36.9286 47.1967 38.6429 49.2611 38.7143C49.3322 38.7143 49.4034 38.7143 49.4034 38.7143C50.3289 38.7143 51.2543 38.3572 51.895 37.7143C52.6068 37.0714 53.0339 36.1429 53.1051 35.1429C53.1763 34.1429 52.8204 33.2143 52.1085 32.4286C51.3967 31.7857 50.5424 31.3572 49.5458 31.2857ZM51.1831 37C50.6848 37.5 49.9729 37.7143 49.2611 37.7143C47.7661 37.6429 46.6272 36.3572 46.6983 34.8572C46.7695 33.4286 47.9797 32.2143 49.4034 32.2143C49.4746 32.2143 49.4746 32.2143 49.5458 32.2143C50.2577 32.2143 50.9695 32.5714 51.3967 33.0714C51.895 33.5714 52.1085 34.2857 52.1085 35C52.1085 35.7143 51.7526 36.5714 51.1831 37Z" fill="#F68D43"/>
<path d="M14.522 48.1429C14.5932 48.2143 14.5932 48.2857 14.6644 48.3572C16.3017 37.9286 17.2983 26.1429 15.9458 14.2143C15.8746 14.2857 15.8746 14.3572 15.8034 14.4286C17.0847 26.1429 16.1593 37.7857 14.522 48.1429Z" fill="#F3F0F1"/>
<path d="M46.7695 52.7143C47.4102 52.7143 47.9797 52.2143 48.0509 51.5714C47.2678 51.7857 46.4848 52 45.7017 52.1429C45.9153 52.5 46.3424 52.7143 46.7695 52.7143Z" fill="white"/>
<path d="M46.7695 50.1429C46.2 50.1429 45.7017 50.5714 45.5593 51.0714C46.2712 50.9286 47.0542 50.7857 47.7661 50.5714C47.5525 50.3572 47.1966 50.1429 46.7695 50.1429Z" fill="white"/>
<path d="M47.7661 50.6429C46.9831 50.8572 46.2712 51 45.5593 51.1429C45.5593 51.2143 45.4882 51.3572 45.4882 51.4286C45.4882 51.7143 45.5593 51.9286 45.7017 52.1429C46.4848 52 47.2678 51.8572 48.0509 51.5714C48.0509 51.5 48.0509 51.5 48.0509 51.4286C48.0509 51.1429 47.9797 50.8572 47.7661 50.6429Z" fill="white"/>
<path d="M25.0576 17.6429C25.0576 18.1429 25.3424 18.5 25.6983 18.7143C25.9119 17.9286 26.0542 17.1429 26.2678 16.3571C25.5559 16.4286 25.0576 17 25.0576 17.6429Z" fill="white"/>
<path d="M27.6204 17.6429C27.6204 17.2857 27.478 16.9286 27.1933 16.7143C27.0509 17.4286 26.8373 18.1429 26.6949 18.8572C27.1933 18.7143 27.6204 18.2143 27.6204 17.6429Z" fill="white"/>
<path d="M26.6949 18.8572C26.8373 18.1429 27.0508 17.4286 27.1932 16.7143C26.9797 16.5 26.6949 16.3571 26.339 16.3571H26.2678C26.0542 17.1429 25.9119 17.9286 25.6983 18.7143C25.9119 18.8572 26.1254 18.9286 26.339 18.9286C26.4814 18.9286 26.5525 18.9286 26.6949 18.8572Z" fill="white"/>
<path d="M44.6339 6.64287C44.1356 6.64287 43.7797 7.00001 43.7797 7.50001C44.278 7.35715 44.8475 7.2143 45.3458 7.07144C45.2034 6.85715 44.9898 6.64287 44.6339 6.64287Z" fill="white"/>
<path d="M44.6339 8.42859C45.1322 8.42859 45.4881 8.07145 45.4881 7.57145C45.4881 7.50002 45.4881 7.35716 45.4169 7.28574C44.8475 7.42859 44.3492 7.57145 43.7797 7.71431C43.922 8.07145 44.2068 8.42859 44.6339 8.42859Z" fill="white"/>
<path d="M45.417 7.28573C45.417 7.2143 45.3458 7.2143 45.3458 7.14287C44.7763 7.28573 44.278 7.42858 43.7797 7.57144C43.7797 7.64287 43.7797 7.64287 43.7797 7.7143C44.3492 7.50001 44.9186 7.35715 45.417 7.28573Z" fill="white"/>
<path d="M56.0949 27.2857C56.0949 26.7857 55.739 26.4286 55.2407 26.4286C55.0983 26.4286 55.0271 26.4286 54.8848 26.5C55.2407 26.9286 55.5966 27.3572 55.8814 27.8572C55.9526 27.7143 56.0949 27.5 56.0949 27.2857Z" fill="white"/>
<path d="M54.3152 27.2857C54.3152 27.7857 54.6712 28.1429 55.1695 28.1429C55.383 28.1429 55.5966 28.0714 55.739 27.9286C55.4542 27.4286 55.0983 27 54.7424 26.5714C54.5288 26.7857 54.3152 27 54.3152 27.2857Z" fill="white"/>
<path d="M55.739 27.9286C55.8102 27.8572 55.8102 27.8572 55.8813 27.7857C55.5966 27.2857 55.2407 26.8572 54.8847 26.4286C54.8136 26.4286 54.8136 26.5 54.7424 26.5C55.0983 27 55.4542 27.4286 55.739 27.9286Z" fill="white"/>
<path d="M26.9797 46.7857C26.9797 46.3572 26.6949 46.0714 26.339 45.9286C26.2678 46.5 26.2678 47.0714 26.2678 47.5714C26.6949 47.5714 26.9797 47.2143 26.9797 46.7857Z" fill="white"/>
<path d="M26.1254 45.9286C25.6271 45.9286 25.2712 46.2857 25.2712 46.7857C25.2712 47.2143 25.6271 47.6429 26.0542 47.6429C26.1254 47.0714 26.1966 46.5 26.1254 45.9286C26.1966 45.9286 26.1966 45.9286 26.1254 45.9286Z" fill="white"/>
<path d="M26.2678 47.6429C26.2678 47.1429 26.339 46.5714 26.339 46C26.2678 46 26.2678 46 26.1966 46C26.1254 46.5714 26.1254 47.1429 26.1254 47.7143C26.1254 47.7143 26.1254 47.7143 26.1966 47.7143C26.1966 47.6429 26.1966 47.6429 26.2678 47.6429Z" fill="white"/>
<path d="M41.9288 64.5C24.2034 64.5 9.75256 50 9.75256 32.2143C9.75256 14.4286 24.2034 0 41.9288 0C59.6543 0 74.0339 14.4286 74.0339 32.2143C74.0339 50 59.6543 64.5 41.9288 64.5ZM41.9288 1C24.7729 1 10.7492 15 10.7492 32.2143C10.7492 49.4286 24.7017 63.4286 41.8576 63.4286C59.0136 63.4286 72.9661 49.4286 72.9661 32.2143C72.9661 15 59.0848 1 41.9288 1Z" fill="#F3F0F1"/>
</svg>
